<svg xmlns="http://www.w3.org/2000/svg" viewBox="0 0 400 180" fill="none">
  <defs>
    <linearGradient id="bg" x1="0" y1="0" x2="400" y2="180" gradientUnits="userSpaceOnUse">
      <stop offset="0%" stop-color="#7c3aed" stop-opacity="0.15"/>
      <stop offset="100%" stop-color="#a78bfa" stop-opacity="0.08"/>
    </linearGradient>
  </defs>
  <rect width="400" height="180" fill="url(#bg)"/>
  <!-- Chat bubbles -->
  <rect x="60" y="30" width="140" height="40" rx="20" fill="#8b5cf6" opacity="0.7"/>
  <rect x="80" y="42" width="60" height="6" rx="3" fill="#fff" opacity="0.7"/>
  <rect x="80" y="52" width="90" height="6" rx="3" fill="#fff" opacity="0.4"/>
  <rect x="200" y="55" width="150" height="40" rx="20" fill="#a78bfa" opacity="0.5"/>
  <rect x="220" y="67" width="70" height="6" rx="3" fill="#fff" opacity="0.7"/>
  <rect x="220" y="77" width="100" height="6" rx="3" fill="#fff" opacity="0.4"/>
  <rect x="80" y="80" width="160" height="40" rx="20" fill="#8b5cf6" opacity="0.5"/>
  <rect x="100" y="92" width="80" height="6" rx="3" fill="#fff" opacity="0.7"/>
  <rect x="100" y="102" width="110" height="6" rx="3" fill="#fff" opacity="0.4"/>
  <!-- Robot icon -->
  <circle cx="330" cy="140" r="22" fill="#7c3aed" opacity="0.3"/>
  <rect x="320" y="130" width="20" height="16" rx="4" fill="#a78bfa"/>
  <circle cx="326" cy="137" r="2.5" fill="#fff"/>
  <circle cx="334" cy="137" r="2.5" fill="#fff"/>
  <rect x="324" y="148" width="12" height="3" rx="1.5" fill="#a78bfa"/>
  <!-- Dots pattern -->
  <circle cx="40" cy="150" r="3" fill="#8b5cf6" opacity="0.15"/>
  <circle cx="55" cy="160" r="2" fill="#8b5cf6" opacity="0.1"/>
  <circle cx="45" cy="140" r="2" fill="#a78bfa" opacity="0.12"/>
</svg>