<svg xmlns="http://www.w3.org/2000/svg" viewBox="0 0 600 260" fill="none">
  <defs>
    <linearGradient id="pbg" x1="0" y1="0" x2="600" y2="260" gradientUnits="userSpaceOnUse">
      <stop offset="0%" stop-color="#7c3aed" stop-opacity="0.2"/>
      <stop offset="50%" stop-color="#3b82f6" stop-opacity="0.12"/>
      <stop offset="100%" stop-color="#06b6d4" stop-opacity="0.08"/>
    </linearGradient>
    <linearGradient id="shield" x1="250" y1="40" x2="350" y2="200" gradientUnits="userSpaceOnUse">
      <stop offset="0%" stop-color="#8b5cf6"/>
      <stop offset="100%" stop-color="#3b82f6"/>
    </linearGradient>
  </defs>
  <rect width="600" height="260" fill="url(#pbg)"/>
  <!-- Grid pattern -->
  <line x1="0" y1="50" x2="600" y2="50" stroke="#8b5cf6" stroke-width="0.5" opacity="0.06"/>
  <line x1="0" y1="100" x2="600" y2="100" stroke="#8b5cf6" stroke-width="0.5" opacity="0.06"/>
  <line x1="0" y1="150" x2="600" y2="150" stroke="#8b5cf6" stroke-width="0.5" opacity="0.06"/>
  <line x1="0" y1="200" x2="600" y2="200" stroke="#8b5cf6" stroke-width="0.5" opacity="0.06"/>
  <line x1="100" y1="0" x2="100" y2="260" stroke="#8b5cf6" stroke-width="0.5" opacity="0.06"/>
  <line x1="200" y1="0" x2="200" y2="260" stroke="#8b5cf6" stroke-width="0.5" opacity="0.06"/>
  <line x1="300" y1="0" x2="300" y2="260" stroke="#8b5cf6" stroke-width="0.5" opacity="0.06"/>
  <line x1="400" y1="0" x2="400" y2="260" stroke="#8b5cf6" stroke-width="0.5" opacity="0.06"/>
  <line x1="500" y1="0" x2="500" y2="260" stroke="#8b5cf6" stroke-width="0.5" opacity="0.06"/>
  <!-- Central shield -->
  <path d="M300 40 L360 65 L360 140 C360 180 335 210 300 222 C265 210 240 180 240 140 L240 65 Z" fill="url(#shield)" opacity="0.25"/>
  <path d="M300 60 L345 78 L345 135 C345 165 325 190 300 198 C275 190 255 165 255 135 L255 78 Z" fill="url(#shield)" opacity="0.15"/>
  <path d="M285 125 L296 136 L318 110" stroke="#fff" stroke-width="5" fill="none" opacity="0.5" stroke-linecap="round" stroke-linejoin="round"/>
  <!-- Left server nodes -->
  <rect x="50" y="60" width="60" height="40" rx="8" fill="#3b82f6" opacity="0.15"/>
  <rect x="58" y="72" width="20" height="4" rx="2" fill="#60a5fa" opacity="0.4"/>
  <rect x="58" y="80" width="35" height="4" rx="2" fill="#60a5fa" opacity="0.25"/>
  <circle cx="100" cy="72" r="3" fill="#34d399" opacity="0.5"/>
  <rect x="60" y="120" width="55" height="35" rx="8" fill="#8b5cf6" opacity="0.12"/>
  <rect x="68" y="130" width="18" height="4" rx="2" fill="#a78bfa" opacity="0.35"/>
  <rect x="68" y="138" width="30" height="4" rx="2" fill="#a78bfa" opacity="0.2"/>
  <circle cx="105" cy="130" r="3" fill="#34d399" opacity="0.4"/>
  <rect x="40" y="175" width="65" height="38" rx="8" fill="#06b6d4" opacity="0.12"/>
  <rect x="50" y="186" width="22" height="4" rx="2" fill="#22d3ee" opacity="0.35"/>
  <rect x="50" y="194" width="36" height="4" rx="2" fill="#22d3ee" opacity="0.2"/>
  <circle cx="94" cy="186" r="3" fill="#34d399" opacity="0.4"/>
  <!-- Right server nodes -->
  <rect x="490" y="55" width="60" height="40" rx="8" fill="#3b82f6" opacity="0.15"/>
  <rect x="498" y="67" width="25" height="4" rx="2" fill="#60a5fa" opacity="0.35"/>
  <rect x="498" y="75" width="35" height="4" rx="2" fill="#60a5fa" opacity="0.2"/>
  <circle cx="540" cy="67" r="3" fill="#fbbf24" opacity="0.5"/>
  <rect x="485" y="115" width="58" height="38" rx="8" fill="#8b5cf6" opacity="0.12"/>
  <rect x="493" y="126" width="20" height="4" rx="2" fill="#a78bfa" opacity="0.3"/>
  <rect x="493" y="134" width="32" height="4" rx="2" fill="#a78bfa" opacity="0.18"/>
  <circle cx="533" cy="126" r="3" fill="#fbbf24" opacity="0.4"/>
  <rect x="495" y="172" width="62" height="38" rx="8" fill="#06b6d4" opacity="0.12"/>
  <rect x="505" y="183" width="24" height="4" rx="2" fill="#22d3ee" opacity="0.3"/>
  <rect x="505" y="191" width="38" height="4" rx="2" fill="#22d3ee" opacity="0.18"/>
  <circle cx="547" cy="183" r="3" fill="#fbbf24" opacity="0.4"/>
  <!-- Connection lines left -->
  <line x1="110" y1="80" x2="240" y2="100" stroke="#60a5fa" stroke-width="1.5" opacity="0.2" stroke-dasharray="4 3"/>
  <line x1="115" y1="137" x2="240" y2="130" stroke="#a78bfa" stroke-width="1.5" opacity="0.18" stroke-dasharray="4 3"/>
  <line x1="105" y1="194" x2="245" y2="155" stroke="#22d3ee" stroke-width="1.5" opacity="0.15" stroke-dasharray="4 3"/>
  <!-- Connection lines right -->
  <line x1="490" y1="75" x2="360" y2="100" stroke="#60a5fa" stroke-width="1.5" opacity="0.2" stroke-dasharray="4 3"/>
  <line x1="485" y1="134" x2="360" y2="130" stroke="#a78bfa" stroke-width="1.5" opacity="0.18" stroke-dasharray="4 3"/>
  <line x1="495" y1="191" x2="355" y2="155" stroke="#22d3ee" stroke-width="1.5" opacity="0.15" stroke-dasharray="4 3"/>
  <!-- Glow effect -->
  <circle cx="300" cy="130" r="60" fill="#8b5cf6" opacity="0.04"/>
  <circle cx="300" cy="130" r="90" fill="#3b82f6" opacity="0.02"/>
</svg>