<svg xmlns="http://www.w3.org/2000/svg" viewBox="0 0 400 180" fill="none">
  <defs>
    <linearGradient id="bg7" x1="0" y1="0" x2="400" y2="180" gradientUnits="userSpaceOnUse">
      <stop offset="0%" stop-color="#3b82f6" stop-opacity="0.15"/>
      <stop offset="100%" stop-color="#60a5fa" stop-opacity="0.06"/>
    </linearGradient>
  </defs>
  <rect width="400" height="180" fill="url(#bg7)"/>
  <!-- Central shield -->
  <path d="M200 30 L240 48 L240 95 C240 120 220 140 200 148 C180 140 160 120 160 95 L160 48 Z" fill="#3b82f6" opacity="0.25"/>
  <path d="M200 45 L228 58 L228 92 C228 110 215 125 200 130 C185 125 172 110 172 92 L172 58 Z" fill="#60a5fa" opacity="0.2"/>
  <path d="M190 85 L197 92 L212 75" stroke="#fff" stroke-width="4" fill="none" opacity="0.5" stroke-linecap="round" stroke-linejoin="round"/>
  <!-- Left nodes -->
  <circle cx="60" cy="50" r="12" fill="#3b82f6" opacity="0.2"/>
  <circle cx="60" cy="50" r="5" fill="#60a5fa" opacity="0.4"/>
  <circle cx="55" cy="110" r="10" fill="#3b82f6" opacity="0.15"/>
  <circle cx="55" cy="110" r="4" fill="#60a5fa" opacity="0.35"/>
  <circle cx="80" cy="150" r="8" fill="#3b82f6" opacity="0.12"/>
  <circle cx="80" cy="150" r="3" fill="#60a5fa" opacity="0.3"/>
  <!-- Right nodes -->
  <circle cx="340" cy="45" r="10" fill="#3b82f6" opacity="0.15"/>
  <circle cx="340" cy="45" r="4" fill="#60a5fa" opacity="0.35"/>
  <circle cx="345" cy="105" r="12" fill="#3b82f6" opacity="0.2"/>
  <circle cx="345" cy="105" r="5" fill="#60a5fa" opacity="0.4"/>
  <circle cx="320" cy="155" r="9" fill="#3b82f6" opacity="0.12"/>
  <circle cx="320" cy="155" r="3.5" fill="#60a5fa" opacity="0.3"/>
  <!-- Connection lines -->
  <line x1="72" y1="50" x2="160" y2="70" stroke="#60a5fa" stroke-width="1.5" opacity="0.2"/>
  <line x1="65" y1="110" x2="160" y2="90" stroke="#60a5fa" stroke-width="1.5" opacity="0.18"/>
  <line x1="88" y1="150" x2="165" y2="110" stroke="#60a5fa" stroke-width="1.5" opacity="0.15"/>
  <line x1="330" y1="45" x2="240" y2="70" stroke="#60a5fa" stroke-width="1.5" opacity="0.2"/>
  <line x1="333" y1="105" x2="240" y2="90" stroke="#60a5fa" stroke-width="1.5" opacity="0.18"/>
  <line x1="311" y1="155" x2="235" y2="110" stroke="#60a5fa" stroke-width="1.5" opacity="0.15"/>
</svg>