<svg xmlns="http://www.w3.org/2000/svg" viewBox="0 0 400 180" fill="none">
  <defs>
    <linearGradient id="bg4" x1="0" y1="0" x2="400" y2="180" gradientUnits="userSpaceOnUse">
      <stop offset="0%" stop-color="#f59e0b" stop-opacity="0.15"/>
      <stop offset="100%" stop-color="#fbbf24" stop-opacity="0.06"/>
    </linearGradient>
  </defs>
  <rect width="400" height="180" fill="url(#bg4)"/>
  <!-- Document -->
  <rect x="80" y="15" width="160" height="150" rx="8" fill="#d97706" opacity="0.2"/>
  <rect x="85" y="20" width="150" height="140" rx="6" fill="#f59e0b" opacity="0.15"/>
  <!-- Text lines -->
  <rect x="100" y="40" width="100" height="7" rx="3.5" fill="#fef3c7" opacity="0.6"/>
  <rect x="100" y="56" width="120" height="5" rx="2.5" fill="#fef3c7" opacity="0.35"/>
  <rect x="100" y="68" width="110" height="5" rx="2.5" fill="#fef3c7" opacity="0.35"/>
  <rect x="100" y="80" width="90" height="5" rx="2.5" fill="#fef3c7" opacity="0.35"/>
  <rect x="100" y="96" width="115" height="5" rx="2.5" fill="#fef3c7" opacity="0.25"/>
  <rect x="100" y="108" width="105" height="5" rx="2.5" fill="#fef3c7" opacity="0.25"/>
  <rect x="100" y="120" width="80" height="5" rx="2.5" fill="#fef3c7" opacity="0.25"/>
  <!-- Pen -->
  <line x1="290" y1="30" x2="330" y2="130" stroke="#f59e0b" stroke-width="4" opacity="0.4" stroke-linecap="round"/>
  <polygon points="330,130 325,142 335,142" fill="#f59e0b" opacity="0.5"/>
  <!-- AI sparkle -->
  <path d="M270 60 L274 72 L286 76 L274 80 L270 92 L266 80 L254 76 L266 72 Z" fill="#fbbf24" opacity="0.35"/>
  <path d="M310 90 L312 96 L318 98 L312 100 L310 106 L308 100 L302 98 L308 96 Z" fill="#f59e0b" opacity="0.25"/>
  <!-- Floating words -->
  <rect x="280" y="140" width="40" height="12" rx="6" fill="#f59e0b" opacity="0.15"/>
  <rect x="330" y="145" width="35" height="12" rx="6" fill="#fbbf24" opacity="0.12"/>
</svg>